<?xml version="1.0" standalone="no"?>
<!DOCTYPE svg PUBLIC "-//W3C//DTD SVG 20010904//EN"
 "http://www.w3.org/TR/2001/REC-SVG-20010904/DTD/svg10.dtd">
<svg version="1.0" xmlns="http://www.w3.org/2000/svg"
 width="1774.000000pt" height="887.000000pt" viewBox="0 0 1774.000000 887.000000"
 preserveAspectRatio="xMidYMid meet">

<g transform="translate(0.000000,887.000000) scale(0.100000,-0.100000)"
fill="#FFFFFF" stroke="none">
<path d="M3100 4593 c0 -14 39 -47 93 -78 49 -28 70 -28 47 0 -7 8 -9 15 -5
15 5 0 -11 14 -34 30 -43 31 -101 50 -101 33z"/>
<path d="M13850 4560 c-176 -12 -265 -45 -358 -134 -94 -88 -122 -174 -122
-369 0 -152 18 -220 84 -316 93 -136 124 -144 587 -149 302 -3 362 -1 393 12
67 28 71 92 9 133 -24 16 -61 19 -338 24 -335 6 -358 9 -431 65 -46 35 -86
105 -82 141 3 25 8 29 48 35 25 3 235 7 468 7 l422 1 12 28 c16 41 -6 221 -35
286 -35 76 -97 147 -154 178 -101 55 -270 75 -503 58z m312 -185 c21 -7 57
-26 79 -41 69 -47 114 -152 73 -168 -9 -3 -167 -6 -353 -6 -383 0 -382 0 -361
65 25 76 110 145 203 165 58 13 311 2 359 -15z"/>
<path d="M12039 4533 c-11 -13 -15 -102 -19 -447 -3 -237 -3 -444 0 -461 6
-30 7 -30 75 -33 38 -2 79 -1 91 2 41 11 44 39 44 410 0 283 3 356 13 365 9 7
95 11 258 12 320 1 373 -11 439 -103 16 -22 35 -57 41 -77 7 -21 14 -155 18
-313 4 -198 9 -281 18 -289 16 -16 168 -18 183 -3 8 8 11 105 8 331 l-3 319
-38 77 c-41 82 -89 132 -169 173 -97 49 -143 54 -559 54 -347 0 -388 -2 -400
-17z"/>
<path d="M14653 4538 c-13 -15 18 -101 106 -298 53 -117 61 -135 196 -435 104
-232 89 -215 185 -215 127 0 116 -12 225 240 91 209 183 404 193 408 15 5 28
-18 90 -163 33 -77 96 -216 139 -310 l80 -170 84 -3 c46 -2 94 0 106 3 23 5
21 1 146 280 221 493 278 638 258 658 -6 6 -44 13 -84 15 -58 3 -76 1 -86 -12
-7 -9 -10 -16 -5 -16 4 0 -4 -12 -18 -27 -13 -16 -31 -44 -38 -63 -7 -19 -38
-84 -68 -145 -31 -60 -83 -173 -116 -250 -75 -171 -82 -174 -130 -60 -18 44
-49 114 -69 155 -68 145 -159 345 -174 383 l-15 37 -93 0 -92 0 -28 -62 c-15
-35 -69 -151 -120 -258 -50 -107 -106 -226 -123 -265 -17 -38 -37 -70 -44 -70
-15 0 -11 -7 -149 290 -152 329 -160 345 -167 346 -47 9 -66 12 -118 16 -43 3
-63 1 -71 -9z"/>
<path d="M3435 4410 c5 -9 2 -10 -14 -5 -17 5 -21 2 -21 -14 0 -12 4 -21 8
-21 5 0 28 -17 53 -37 24 -20 38 -30 32 -23 -7 8 -13 20 -13 27 0 7 -9 22 -20
33 -12 12 -18 25 -15 30 3 5 0 12 -6 16 -8 5 -9 3 -4 -6z"/>
<path d="M11491 3856 c-33 -18 -50 -53 -51 -104 0 -68 21 -106 85 -147 l57
-36 43 17 c24 9 51 25 60 35 39 42 59 165 34 210 -8 16 -17 18 -42 14 -19 -4
-50 0 -76 9 -53 19 -78 20 -110 2z"/>
<path d="M1852 3590 c-1 -153 1 -180 18 -217 10 -24 26 -43 35 -43 8 0 14 -5
13 -10 -2 -6 90 -70 204 -143 114 -73 273 -177 354 -232 162 -110 174 -118
174 -112 0 2 -50 39 -110 81 -61 43 -108 81 -105 86 3 5 1 11 -5 15 -5 3 -10
13 -10 22 0 19 -41 59 -69 68 -14 4 -18 12 -15 30 2 14 0 25 -5 25 -9 0 -53
83 -55 105 -1 6 -13 23 -28 39 -16 16 -28 37 -28 47 0 10 -16 34 -35 54 -20
19 -38 48 -42 65 -3 17 -13 35 -23 40 -28 15 -80 64 -80 75 0 31 -72 67 -135
69 -28 1 -31 4 -41 56 -10 49 -12 37 -12 -120z m573 -588 c-3 -3 -11 0 -18 7
-9 10 -8 11 6 5 10 -3 15 -9 12 -12z"/>
<path d="M3885 3150 c-252 -151 -401 -246 -404 -257 -2 -10 -7 -23 -13 -30
-14 -17 -12 -294 3 -325 25 -56 75 -45 210 47 104 71 117 82 135 120 37 76 59
112 85 143 16 18 29 38 29 45 0 7 10 32 22 57 12 25 22 47 23 50 13 37 30 69
48 87 66 65 86 96 92 143 2 18 -1 30 -8 30 -7 0 5 11 26 24 21 13 47 22 57 19
10 -3 24 3 31 12 8 10 27 30 43 46 15 16 26 29 24 29 -2 0 -184 -108 -403
-240z"/>
<path d="M1949 3242 c13 -25 110 -86 134 -84 10 0 15 -4 11 -10 -4 -7 -2 -8 4
-4 7 4 12 9 12 11 0 4 -112 75 -148 94 -22 12 -23 11 -13 -7z"/>
<path d="M2173 3105 c0 -8 4 -12 9 -9 4 3 8 0 8 -6 0 -6 4 -9 9 -6 5 3 12 -1
15 -10 3 -8 10 -13 15 -10 5 3 12 -1 15 -10 4 -9 9 -14 12 -11 3 2 17 -6 31
-19 14 -13 31 -24 37 -23 24 3 36 -2 34 -12 -2 -6 7 -12 20 -14 12 -1 22 -1
22 1 0 1 -42 28 -92 59 -51 32 -102 64 -114 72 -18 11 -21 11 -21 -2z"/>
<path d="M3430 3000 c-33 -46 -60 -133 -60 -191 0 -41 3 -50 15 -45 10 3 15
-1 16 -12 1 -9 5 3 10 28 5 25 7 59 4 75 -6 34 19 79 40 72 7 -3 39 13 71 34
33 22 52 39 44 38 -8 -2 -29 5 -47 14 -46 24 -69 21 -93 -13z"/>
<path d="M2860 2672 c0 -12 241 -175 248 -167 3 3 0 11 -6 17 -7 7 -12 19 -12
28 0 19 -53 52 -92 56 -16 2 -53 19 -83 39 -30 19 -55 31 -55 27z"/>
<path d="M3380 2540 c-15 -9 -5 -46 15 -54 8 -3 21 2 30 10 27 27 -11 65 -45
44z"/>
</g>
</svg>

